<mxfile host="Electron" agent="Mozilla/5.0 (Windows NT 10.0; Win64; x64) AppleWebKit/537.36 (KHTML, like Gecko) draw.io/24.7.5 Chrome/126.0.6478.183 Electron/31.3.0 Safari/537.36" version="24.7.5" pages="2">
  <diagram name="Page-1" id="O8vLwWQHP5OyfaxTRjNc">
    <mxGraphModel dx="1537" dy="1334" grid="1" gridSize="10" guides="1" tooltips="1" connect="1" arrows="1" fold="1" page="1" pageScale="1" pageWidth="827" pageHeight="1169" math="0" shadow="0">
      <root>
        <mxCell id="0" />
        <mxCell id="1" parent="0" />
        <mxCell id="ZVWjDDXbeLKMyBqqeapZ-9" style="edgeStyle=elbowEdgeStyle;rounded=0;orthogonalLoop=1;jettySize=auto;html=1;entryX=0.033;entryY=0.447;entryDx=0;entryDy=0;entryPerimeter=0;strokeWidth=5;strokeColor=default;align=center;verticalAlign=middle;fontFamily=Helvetica;fontSize=11;fontColor=default;labelBackgroundColor=default;endArrow=blockThin;endFill=1;" edge="1" parent="1" source="ZVWjDDXbeLKMyBqqeapZ-1" target="ZVWjDDXbeLKMyBqqeapZ-4">
          <mxGeometry relative="1" as="geometry">
            <mxPoint x="289" y="970" as="targetPoint" />
            <Array as="points">
              <mxPoint x="284" y="820" />
            </Array>
          </mxGeometry>
        </mxCell>
        <mxCell id="ZVWjDDXbeLKMyBqqeapZ-1" value="" style="verticalLabelPosition=bottom;outlineConnect=0;align=center;dashed=0;html=1;verticalAlign=top;shape=mxgraph.pid2misc.column;columnType=tray;strokeWidth=5;strokeColor=default;fontFamily=Helvetica;fontSize=12;fontColor=default;fillColor=none;" vertex="1" parent="1">
          <mxGeometry x="234" y="420" width="100" height="470" as="geometry" />
        </mxCell>
        <mxCell id="ZVWjDDXbeLKMyBqqeapZ-4" value="" style="shape=mxgraph.pid.pumps.centrifugal_pump_1;html=1;pointerEvents=1;align=center;verticalLabelPosition=bottom;verticalAlign=top;dashed=0;strokeWidth=5;strokeColor=default;fontFamily=Helvetica;fontSize=12;fontColor=default;fillColor=none;" vertex="1" parent="1">
          <mxGeometry x="354" y="940" width="70" height="67" as="geometry" />
        </mxCell>
        <mxCell id="ZVWjDDXbeLKMyBqqeapZ-5" value="" style="verticalLabelPosition=bottom;outlineConnect=0;align=center;dashed=0;html=1;verticalAlign=top;shape=mxgraph.pid2misc.column;columnType=common;strokeWidth=5;fillColor=none;" vertex="1" parent="1">
          <mxGeometry x="474" y="320" width="60" height="90" as="geometry" />
        </mxCell>
        <mxCell id="ZVWjDDXbeLKMyBqqeapZ-6" value="" style="shape=mxgraph.pid.heat_exchangers.shell_and_tube_heat_exchanger_2;html=1;pointerEvents=1;align=center;verticalLabelPosition=bottom;verticalAlign=top;dashed=0;strokeWidth=5;rotation=-180;strokeColor=default;fontFamily=Helvetica;fontSize=12;fontColor=default;fillColor=none;" vertex="1" parent="1">
          <mxGeometry x="474" y="210" width="60" height="60" as="geometry" />
        </mxCell>
        <mxCell id="ZVWjDDXbeLKMyBqqeapZ-7" value="" style="shape=mxgraph.pid.heat_exchangers.shell_and_tube_heat_exchanger_2;html=1;pointerEvents=1;align=center;verticalLabelPosition=bottom;verticalAlign=top;dashed=0;strokeWidth=5;rotation=-180;strokeColor=default;fontFamily=Helvetica;fontSize=12;fontColor=default;fillColor=none;" vertex="1" parent="1">
          <mxGeometry x="464" y="849" width="60" height="60" as="geometry" />
        </mxCell>
        <mxCell id="ZVWjDDXbeLKMyBqqeapZ-10" style="edgeStyle=elbowEdgeStyle;rounded=0;orthogonalLoop=1;jettySize=auto;html=1;entryX=0.5;entryY=0;entryDx=0;entryDy=0;entryPerimeter=0;exitX=0.959;exitY=0.149;exitDx=0;exitDy=0;exitPerimeter=0;strokeWidth=5;strokeColor=default;align=center;verticalAlign=middle;fontFamily=Helvetica;fontSize=11;fontColor=default;labelBackgroundColor=default;endArrow=blockThin;endFill=1;" edge="1" parent="1" source="ZVWjDDXbeLKMyBqqeapZ-4" target="ZVWjDDXbeLKMyBqqeapZ-7">
          <mxGeometry relative="1" as="geometry">
            <mxPoint x="636" y="990" as="targetPoint" />
            <mxPoint x="564" y="910" as="sourcePoint" />
            <Array as="points">
              <mxPoint x="494" y="900" />
            </Array>
          </mxGeometry>
        </mxCell>
        <mxCell id="ZVWjDDXbeLKMyBqqeapZ-11" style="edgeStyle=elbowEdgeStyle;rounded=0;orthogonalLoop=1;jettySize=auto;html=1;strokeWidth=5;strokeColor=default;align=center;verticalAlign=middle;fontFamily=Helvetica;fontSize=11;fontColor=default;labelBackgroundColor=default;endArrow=blockThin;endFill=1;" edge="1" parent="1">
          <mxGeometry relative="1" as="geometry">
            <mxPoint x="634" y="950" as="targetPoint" />
            <mxPoint x="494" y="950" as="sourcePoint" />
            <Array as="points">
              <mxPoint x="597" y="920" />
            </Array>
          </mxGeometry>
        </mxCell>
        <mxCell id="ZVWjDDXbeLKMyBqqeapZ-12" style="edgeStyle=elbowEdgeStyle;rounded=0;orthogonalLoop=1;jettySize=auto;html=1;strokeWidth=5;strokeColor=default;align=center;verticalAlign=middle;fontFamily=Helvetica;fontSize=11;fontColor=default;labelBackgroundColor=default;endArrow=blockThin;endFill=1;" edge="1" parent="1">
          <mxGeometry relative="1" as="geometry">
            <mxPoint x="634" y="440" as="targetPoint" />
            <mxPoint x="503" y="440" as="sourcePoint" />
            <Array as="points">
              <mxPoint x="606" y="410" />
            </Array>
          </mxGeometry>
        </mxCell>
        <mxCell id="ZVWjDDXbeLKMyBqqeapZ-13" style="edgeStyle=elbowEdgeStyle;rounded=0;orthogonalLoop=1;jettySize=auto;html=1;strokeWidth=5;strokeColor=default;align=center;verticalAlign=middle;fontFamily=Helvetica;fontSize=11;fontColor=default;labelBackgroundColor=default;endArrow=blockThin;endFill=1;" edge="1" parent="1" source="ZVWjDDXbeLKMyBqqeapZ-5">
          <mxGeometry relative="1" as="geometry">
            <mxPoint x="334" y="440" as="targetPoint" />
            <mxPoint x="503" y="240" as="sourcePoint" />
            <Array as="points">
              <mxPoint x="503" y="440" />
            </Array>
          </mxGeometry>
        </mxCell>
        <mxCell id="ZVWjDDXbeLKMyBqqeapZ-14" style="edgeStyle=elbowEdgeStyle;rounded=0;orthogonalLoop=1;jettySize=auto;html=1;entryX=1;entryY=0.5;entryDx=0;entryDy=0;entryPerimeter=0;strokeWidth=5;endArrow=blockThin;endFill=1;" edge="1" parent="1" target="ZVWjDDXbeLKMyBqqeapZ-6">
          <mxGeometry relative="1" as="geometry">
            <mxPoint x="431" y="240.0000000000001" as="targetPoint" />
            <mxPoint x="284" y="420" as="sourcePoint" />
            <Array as="points">
              <mxPoint x="284" y="280" />
            </Array>
          </mxGeometry>
        </mxCell>
        <mxCell id="ZVWjDDXbeLKMyBqqeapZ-15" style="edgeStyle=elbowEdgeStyle;rounded=0;orthogonalLoop=1;jettySize=auto;html=1;exitX=0.5;exitY=0;exitDx=0;exitDy=0;exitPerimeter=0;strokeWidth=5;strokeColor=default;align=center;verticalAlign=middle;fontFamily=Helvetica;fontSize=11;fontColor=default;labelBackgroundColor=default;endArrow=blockThin;endFill=1;" edge="1" parent="1" source="ZVWjDDXbeLKMyBqqeapZ-6" target="ZVWjDDXbeLKMyBqqeapZ-5">
          <mxGeometry relative="1" as="geometry">
            <mxPoint x="623" y="450" as="targetPoint" />
            <mxPoint x="513" y="450" as="sourcePoint" />
            <Array as="points">
              <mxPoint x="504" y="310" />
            </Array>
          </mxGeometry>
        </mxCell>
        <mxCell id="ZVWjDDXbeLKMyBqqeapZ-16" style="edgeStyle=elbowEdgeStyle;rounded=0;orthogonalLoop=1;jettySize=auto;html=1;exitX=1;exitY=0.5;exitDx=0;exitDy=0;exitPerimeter=0;strokeWidth=5;strokeColor=default;align=center;verticalAlign=middle;fontFamily=Helvetica;fontSize=11;fontColor=default;labelBackgroundColor=default;endArrow=blockThin;endFill=1;" edge="1" parent="1" source="ZVWjDDXbeLKMyBqqeapZ-7" target="ZVWjDDXbeLKMyBqqeapZ-1">
          <mxGeometry relative="1" as="geometry">
            <mxPoint x="524" y="630" as="targetPoint" />
            <mxPoint x="414" y="630" as="sourcePoint" />
            <Array as="points">
              <mxPoint x="334" y="850" />
            </Array>
          </mxGeometry>
        </mxCell>
        <mxCell id="ZVWjDDXbeLKMyBqqeapZ-17" style="edgeStyle=elbowEdgeStyle;rounded=0;orthogonalLoop=1;jettySize=auto;html=1;strokeWidth=5;strokeColor=default;align=center;verticalAlign=middle;fontFamily=Helvetica;fontSize=11;fontColor=default;labelBackgroundColor=default;endArrow=blockThin;endFill=1;" edge="1" parent="1">
          <mxGeometry relative="1" as="geometry">
            <mxPoint x="234" y="660" as="targetPoint" />
            <mxPoint x="124" y="660" as="sourcePoint" />
            <Array as="points">
              <mxPoint x="227" y="630" />
            </Array>
          </mxGeometry>
        </mxCell>
        <mxCell id="ZVWjDDXbeLKMyBqqeapZ-18" style="edgeStyle=elbowEdgeStyle;rounded=0;orthogonalLoop=1;jettySize=auto;html=1;strokeWidth=5;strokeColor=default;align=center;verticalAlign=middle;fontFamily=Helvetica;fontSize=11;fontColor=default;labelBackgroundColor=default;endArrow=blockThin;endFill=1;entryX=0.145;entryY=0.819;entryDx=0;entryDy=0;entryPerimeter=0;" edge="1" parent="1" target="ZVWjDDXbeLKMyBqqeapZ-6">
          <mxGeometry relative="1" as="geometry">
            <mxPoint x="564" y="249" as="targetPoint" />
            <mxPoint x="634" y="220" as="sourcePoint" />
            <Array as="points">
              <mxPoint x="564" y="220" />
            </Array>
          </mxGeometry>
        </mxCell>
        <mxCell id="ZVWjDDXbeLKMyBqqeapZ-19" style="edgeStyle=elbowEdgeStyle;rounded=0;orthogonalLoop=1;jettySize=auto;html=1;strokeWidth=5;strokeColor=default;align=center;verticalAlign=middle;fontFamily=Helvetica;fontSize=11;fontColor=default;labelBackgroundColor=default;endArrow=blockThin;endFill=1;entryX=0.06;entryY=0.812;entryDx=0;entryDy=0;entryPerimeter=0;" edge="1" parent="1" target="ZVWjDDXbeLKMyBqqeapZ-7">
          <mxGeometry relative="1" as="geometry">
            <mxPoint x="521" y="859" as="targetPoint" />
            <mxPoint x="634" y="860" as="sourcePoint" />
            <Array as="points">
              <mxPoint x="560" y="858" />
            </Array>
          </mxGeometry>
        </mxCell>
        <mxCell id="ZVWjDDXbeLKMyBqqeapZ-20" style="edgeStyle=elbowEdgeStyle;rounded=0;orthogonalLoop=1;jettySize=auto;html=1;strokeWidth=5;strokeColor=default;align=center;verticalAlign=middle;fontFamily=Helvetica;fontSize=11;fontColor=default;labelBackgroundColor=default;endArrow=blockThin;endFill=1;" edge="1" parent="1">
          <mxGeometry relative="1" as="geometry">
            <mxPoint x="634" y="260" as="targetPoint" />
            <mxPoint x="524" y="260" as="sourcePoint" />
            <Array as="points">
              <mxPoint x="627" y="230" />
            </Array>
          </mxGeometry>
        </mxCell>
        <mxCell id="ZVWjDDXbeLKMyBqqeapZ-22" style="edgeStyle=elbowEdgeStyle;rounded=0;orthogonalLoop=1;jettySize=auto;html=1;strokeWidth=5;strokeColor=default;align=center;verticalAlign=middle;fontFamily=Helvetica;fontSize=11;fontColor=default;labelBackgroundColor=default;endArrow=blockThin;endFill=1;" edge="1" parent="1">
          <mxGeometry relative="1" as="geometry">
            <mxPoint x="634" y="899" as="targetPoint" />
            <mxPoint x="514" y="899" as="sourcePoint" />
            <Array as="points">
              <mxPoint x="617" y="869" />
            </Array>
          </mxGeometry>
        </mxCell>
        <mxCell id="ZVWjDDXbeLKMyBqqeapZ-23" value="Feed" style="text;html=1;align=center;verticalAlign=middle;resizable=0;points=[];autosize=1;strokeColor=none;fillColor=none;fontFamily=IBM Plex sans;fontSize=36;fontStyle=1;fontColor=default;" vertex="1" parent="1">
          <mxGeometry x="64" y="590" width="100" height="60" as="geometry" />
        </mxCell>
        <mxCell id="ZVWjDDXbeLKMyBqqeapZ-24" value="Reflux" style="text;html=1;align=center;verticalAlign=middle;resizable=0;points=[];autosize=1;strokeColor=none;fillColor=none;fontFamily=IBM Plex sans;fontSize=36;fontStyle=1;fontColor=default;" vertex="1" parent="1">
          <mxGeometry x="354" y="450" width="130" height="60" as="geometry" />
        </mxCell>
        <mxCell id="ZVWjDDXbeLKMyBqqeapZ-25" value="Distillate" style="text;html=1;align=center;verticalAlign=middle;resizable=0;points=[];autosize=1;strokeColor=none;fillColor=none;fontFamily=IBM Plex sans;fontSize=36;fontStyle=1;fontColor=default;" vertex="1" parent="1">
          <mxGeometry x="594" y="450" width="170" height="60" as="geometry" />
        </mxCell>
        <mxCell id="ZVWjDDXbeLKMyBqqeapZ-26" value="Steam" style="text;html=1;align=left;verticalAlign=middle;resizable=0;points=[];autosize=1;strokeColor=none;fillColor=none;fontFamily=IBM Plex sans;fontSize=36;fontStyle=1;fontColor=default;" vertex="1" parent="1">
          <mxGeometry x="594" y="789" width="130" height="60" as="geometry" />
        </mxCell>
        <mxCell id="ZVWjDDXbeLKMyBqqeapZ-27" value="Bottom" style="text;html=1;align=left;verticalAlign=middle;resizable=0;points=[];autosize=1;strokeColor=none;fillColor=none;fontFamily=IBM Plex sans;fontSize=36;fontStyle=1;fontColor=default;" vertex="1" parent="1">
          <mxGeometry x="594" y="960" width="140" height="60" as="geometry" />
        </mxCell>
        <mxCell id="ZVWjDDXbeLKMyBqqeapZ-28" value="Reboiler" style="text;html=1;align=center;verticalAlign=middle;resizable=0;points=[];autosize=1;strokeColor=none;fillColor=none;fontFamily=IBM Plex sans;fontSize=36;fontStyle=1;fontColor=default;" vertex="1" parent="1">
          <mxGeometry x="354" y="745" width="160" height="60" as="geometry" />
        </mxCell>
        <mxCell id="ZVWjDDXbeLKMyBqqeapZ-29" value="Condenser" style="text;html=1;align=left;verticalAlign=middle;resizable=0;points=[];autosize=1;strokeColor=none;fillColor=none;fontFamily=IBM Plex sans;fontSize=36;fontStyle=1;fontColor=default;" vertex="1" parent="1">
          <mxGeometry x="284" y="160" width="200" height="60" as="geometry" />
        </mxCell>
        <mxCell id="ZVWjDDXbeLKMyBqqeapZ-30" value="Reflux&lt;div&gt;drum&lt;/div&gt;" style="text;html=1;align=left;verticalAlign=middle;resizable=0;points=[];autosize=1;strokeColor=none;fillColor=none;fontFamily=IBM Plex sans;fontSize=36;fontStyle=1;fontColor=default;" vertex="1" parent="1">
          <mxGeometry x="554" y="315" width="130" height="100" as="geometry" />
        </mxCell>
        <mxCell id="ZVWjDDXbeLKMyBqqeapZ-31" value="Cooling&lt;div&gt;liquid&lt;/div&gt;" style="text;html=1;align=left;verticalAlign=middle;resizable=0;points=[];autosize=1;strokeColor=none;fillColor=none;fontFamily=IBM Plex sans;fontSize=36;fontStyle=1" vertex="1" parent="1">
          <mxGeometry x="594" y="100" width="140" height="100" as="geometry" />
        </mxCell>
      </root>
    </mxGraphModel>
  </diagram>
  <diagram id="B5Kx_SM-X7SDpl9m8hNK" name="smith_predictor">
    <mxGraphModel dx="1719" dy="1943" grid="1" gridSize="10" guides="1" tooltips="1" connect="1" arrows="1" fold="1" page="1" pageScale="1" pageWidth="827" pageHeight="1169" math="1" shadow="0">
      <root>
        <mxCell id="0" />
        <mxCell id="1" parent="0" />
        <mxCell id="sMZuzTJ-ng6IBWMWuZZ0-13" style="edgeStyle=elbowEdgeStyle;rounded=0;orthogonalLoop=1;jettySize=auto;html=1;entryX=0;entryY=0.5;entryDx=0;entryDy=0;strokeColor=default;strokeWidth=5;align=center;verticalAlign=middle;fontFamily=Helvetica;fontSize=11;fontColor=default;labelBackgroundColor=default;endArrow=blockThin;endFill=1;" edge="1" parent="1" source="sMZuzTJ-ng6IBWMWuZZ0-2" target="sMZuzTJ-ng6IBWMWuZZ0-10">
          <mxGeometry relative="1" as="geometry" />
        </mxCell>
        <mxCell id="sMZuzTJ-ng6IBWMWuZZ0-2" value="&lt;font style=&quot;font-size: 24px;&quot;&gt;G&lt;sub&gt;C&lt;/sub&gt;&lt;/font&gt;" style="rounded=0;whiteSpace=wrap;html=1;strokeWidth=5;fontFamily=Helvetica;fontSize=11;fontStyle=1;strokeColor=default;align=center;verticalAlign=middle;fontColor=default;labelBackgroundColor=default;" vertex="1" parent="1">
          <mxGeometry x="190" y="120" width="120" height="60" as="geometry" />
        </mxCell>
        <mxCell id="sMZuzTJ-ng6IBWMWuZZ0-16" style="edgeStyle=elbowEdgeStyle;rounded=0;orthogonalLoop=1;jettySize=auto;html=1;entryX=0;entryY=0.5;entryDx=0;entryDy=0;strokeColor=default;strokeWidth=5;align=center;verticalAlign=middle;fontFamily=Helvetica;fontSize=11;fontColor=default;labelBackgroundColor=default;endArrow=blockThin;endFill=1;" edge="1" parent="1" source="sMZuzTJ-ng6IBWMWuZZ0-6" target="sMZuzTJ-ng6IBWMWuZZ0-2">
          <mxGeometry relative="1" as="geometry" />
        </mxCell>
        <mxCell id="sMZuzTJ-ng6IBWMWuZZ0-17" style="edgeStyle=elbowEdgeStyle;rounded=0;orthogonalLoop=1;jettySize=auto;html=1;exitX=0;exitY=0.5;exitDx=0;exitDy=0;entryX=0;entryY=0.5;entryDx=0;entryDy=0;strokeColor=default;strokeWidth=5;align=center;verticalAlign=middle;fontFamily=Helvetica;fontSize=11;fontColor=default;labelBackgroundColor=default;endArrow=blockThin;endFill=1;" edge="1" parent="1" target="sMZuzTJ-ng6IBWMWuZZ0-6">
          <mxGeometry relative="1" as="geometry">
            <mxPoint x="20" y="150" as="sourcePoint" />
          </mxGeometry>
        </mxCell>
        <mxCell id="sMZuzTJ-ng6IBWMWuZZ0-6" value="" style="shape=sumEllipse;perimeter=ellipsePerimeter;whiteSpace=wrap;html=1;backgroundOutline=1;strokeWidth=5;rounded=0;strokeColor=default;align=center;verticalAlign=middle;fontFamily=Helvetica;fontSize=11;fontColor=default;labelBackgroundColor=default;" vertex="1" parent="1">
          <mxGeometry x="80" y="125" width="50" height="50" as="geometry" />
        </mxCell>
        <mxCell id="sMZuzTJ-ng6IBWMWuZZ0-7" value="+" style="text;html=1;align=center;verticalAlign=middle;resizable=0;points=[];autosize=1;strokeColor=none;fillColor=none;fontFamily=IBM Plex sans;fontSize=24;fontStyle=1" vertex="1" parent="1">
          <mxGeometry y="-40" width="40" height="40" as="geometry" />
        </mxCell>
        <mxCell id="sMZuzTJ-ng6IBWMWuZZ0-9" value="-" style="text;html=1;align=center;verticalAlign=middle;resizable=0;points=[];autosize=1;strokeColor=none;fillColor=none;fontFamily=IBM Plex sans;fontSize=24;fontStyle=1" vertex="1" parent="1">
          <mxGeometry x="50" y="-40" width="30" height="40" as="geometry" />
        </mxCell>
        <mxCell id="sMZuzTJ-ng6IBWMWuZZ0-14" style="edgeStyle=elbowEdgeStyle;rounded=0;orthogonalLoop=1;jettySize=auto;html=1;entryX=0;entryY=0.5;entryDx=0;entryDy=0;strokeColor=default;strokeWidth=5;align=center;verticalAlign=middle;fontFamily=Helvetica;fontSize=11;fontColor=default;labelBackgroundColor=default;endArrow=blockThin;endFill=1;" edge="1" parent="1" source="sMZuzTJ-ng6IBWMWuZZ0-10" target="sMZuzTJ-ng6IBWMWuZZ0-11">
          <mxGeometry relative="1" as="geometry" />
        </mxCell>
        <mxCell id="sMZuzTJ-ng6IBWMWuZZ0-10" value="&lt;font style=&quot;font-size: 24px;&quot;&gt;G&lt;sub style=&quot;&quot;&gt;P&lt;/sub&gt;&lt;/font&gt;" style="rounded=0;whiteSpace=wrap;html=1;strokeWidth=5;fontFamily=Helvetica;fontSize=11;fontStyle=1;strokeColor=default;align=center;verticalAlign=middle;fontColor=default;labelBackgroundColor=default;" vertex="1" parent="1">
          <mxGeometry x="414" y="120" width="120" height="60" as="geometry" />
        </mxCell>
        <mxCell id="sMZuzTJ-ng6IBWMWuZZ0-15" style="edgeStyle=elbowEdgeStyle;rounded=0;orthogonalLoop=1;jettySize=auto;html=1;exitX=1;exitY=0.5;exitDx=0;exitDy=0;endArrow=blockThin;endFill=1;strokeWidth=5;" edge="1" parent="1" source="sMZuzTJ-ng6IBWMWuZZ0-11">
          <mxGeometry relative="1" as="geometry">
            <mxPoint x="780" y="150" as="targetPoint" />
          </mxGeometry>
        </mxCell>
        <mxCell id="sMZuzTJ-ng6IBWMWuZZ0-11" value="" style="shape=sumEllipse;perimeter=ellipsePerimeter;whiteSpace=wrap;html=1;backgroundOutline=1;strokeWidth=5;rounded=0;strokeColor=default;align=center;verticalAlign=middle;fontFamily=Helvetica;fontSize=11;fontColor=default;labelBackgroundColor=default;" vertex="1" parent="1">
          <mxGeometry x="610" y="125" width="50" height="50" as="geometry" />
        </mxCell>
        <mxCell id="sMZuzTJ-ng6IBWMWuZZ0-31" style="edgeStyle=elbowEdgeStyle;rounded=0;orthogonalLoop=1;jettySize=auto;html=1;entryX=0.5;entryY=1;entryDx=0;entryDy=0;strokeColor=default;strokeWidth=5;align=center;verticalAlign=middle;fontFamily=Helvetica;fontSize=11;fontColor=default;labelBackgroundColor=default;endArrow=blockThin;endFill=1;" edge="1" parent="1" target="sMZuzTJ-ng6IBWMWuZZ0-6">
          <mxGeometry relative="1" as="geometry">
            <mxPoint x="100" y="220" as="targetPoint" />
            <mxPoint x="720" y="280" as="sourcePoint" />
            <Array as="points">
              <mxPoint x="105" y="230" />
            </Array>
          </mxGeometry>
        </mxCell>
        <mxCell id="sMZuzTJ-ng6IBWMWuZZ0-32" value="" style="endArrow=none;html=1;rounded=0;strokeColor=default;strokeWidth=5;align=center;verticalAlign=middle;fontFamily=Helvetica;fontSize=11;fontColor=default;labelBackgroundColor=default;edgeStyle=elbowEdgeStyle;" edge="1" parent="1">
          <mxGeometry width="50" height="50" relative="1" as="geometry">
            <mxPoint x="720" y="280" as="sourcePoint" />
            <mxPoint x="720" y="150" as="targetPoint" />
          </mxGeometry>
        </mxCell>
        <mxCell id="sMZuzTJ-ng6IBWMWuZZ0-33" value="+" style="text;html=1;align=center;verticalAlign=middle;resizable=0;points=[];autosize=1;strokeColor=none;fillColor=none;fontFamily=IBM Plex sans;fontSize=24;fontStyle=1" vertex="1" parent="1">
          <mxGeometry x="70" y="130" width="40" height="40" as="geometry" />
        </mxCell>
        <mxCell id="sMZuzTJ-ng6IBWMWuZZ0-35" value="+" style="text;html=1;align=center;verticalAlign=middle;resizable=0;points=[];autosize=1;strokeColor=none;fillColor=none;fontFamily=IBM Plex sans;fontSize=24;fontStyle=1" vertex="1" parent="1">
          <mxGeometry x="600" y="130" width="40" height="40" as="geometry" />
        </mxCell>
        <mxCell id="sMZuzTJ-ng6IBWMWuZZ0-36" style="edgeStyle=elbowEdgeStyle;rounded=0;orthogonalLoop=1;jettySize=auto;html=1;entryX=0.5;entryY=0;entryDx=0;entryDy=0;strokeColor=default;strokeWidth=5;align=center;verticalAlign=middle;fontFamily=Helvetica;fontSize=11;fontColor=default;labelBackgroundColor=default;endArrow=blockThin;endFill=1;" edge="1" parent="1" target="sMZuzTJ-ng6IBWMWuZZ0-11">
          <mxGeometry relative="1" as="geometry">
            <mxPoint x="630" y="70" as="targetPoint" />
            <mxPoint x="570" y="40" as="sourcePoint" />
            <Array as="points">
              <mxPoint x="635" y="90" />
            </Array>
          </mxGeometry>
        </mxCell>
        <mxCell id="sMZuzTJ-ng6IBWMWuZZ0-37" value="+" style="text;html=1;align=center;verticalAlign=middle;resizable=0;points=[];autosize=1;strokeColor=none;fillColor=none;fontFamily=IBM Plex sans;fontSize=24;fontStyle=1" vertex="1" parent="1">
          <mxGeometry x="615" y="115" width="40" height="40" as="geometry" />
        </mxCell>
        <mxCell id="sMZuzTJ-ng6IBWMWuZZ0-38" value="-" style="text;html=1;align=center;verticalAlign=middle;resizable=0;points=[];autosize=1;strokeColor=none;fillColor=none;fontFamily=IBM Plex sans;fontSize=24;fontStyle=1" vertex="1" parent="1">
          <mxGeometry x="90" y="142" width="30" height="40" as="geometry" />
        </mxCell>
        <mxCell id="sMZuzTJ-ng6IBWMWuZZ0-40" value="D" style="text;html=1;align=center;verticalAlign=middle;resizable=0;points=[];autosize=1;strokeColor=none;fillColor=none;fontFamily=IBM Plex sans;fontSize=24;fontStyle=1" vertex="1" parent="1">
          <mxGeometry x="530" y="10" width="40" height="40" as="geometry" />
        </mxCell>
        <mxCell id="sMZuzTJ-ng6IBWMWuZZ0-41" value="Y" style="text;html=1;align=center;verticalAlign=middle;resizable=0;points=[];autosize=1;strokeColor=none;fillColor=none;fontFamily=IBM Plex sans;fontSize=24;fontStyle=1" vertex="1" parent="1">
          <mxGeometry x="750" y="102" width="40" height="40" as="geometry" />
        </mxCell>
        <mxCell id="sMZuzTJ-ng6IBWMWuZZ0-42" value="Y&lt;sub&gt;SP&lt;/sub&gt;" style="text;html=1;align=center;verticalAlign=middle;resizable=0;points=[];autosize=1;strokeColor=none;fillColor=none;fontFamily=IBM Plex sans;fontSize=24;fontStyle=1" vertex="1" parent="1">
          <mxGeometry y="97" width="60" height="50" as="geometry" />
        </mxCell>
        <mxCell id="sMZuzTJ-ng6IBWMWuZZ0-43" value="E" style="text;html=1;align=center;verticalAlign=middle;resizable=0;points=[];autosize=1;strokeColor=none;fillColor=none;fontFamily=IBM Plex sans;fontSize=24;fontStyle=1" vertex="1" parent="1">
          <mxGeometry x="140" y="107" width="40" height="40" as="geometry" />
        </mxCell>
        <mxCell id="sMZuzTJ-ng6IBWMWuZZ0-44" value="P" style="text;html=1;align=center;verticalAlign=middle;resizable=0;points=[];autosize=1;strokeColor=none;fillColor=none;fontFamily=IBM Plex sans;fontSize=24;fontStyle=1" vertex="1" parent="1">
          <mxGeometry x="340" y="107" width="40" height="40" as="geometry" />
        </mxCell>
        <mxCell id="sMZuzTJ-ng6IBWMWuZZ0-45" style="edgeStyle=elbowEdgeStyle;rounded=0;orthogonalLoop=1;jettySize=auto;html=1;entryX=0;entryY=0.5;entryDx=0;entryDy=0;strokeColor=default;strokeWidth=5;align=center;verticalAlign=middle;fontFamily=Helvetica;fontSize=11;fontColor=default;labelBackgroundColor=default;endArrow=blockThin;endFill=1;" edge="1" source="sMZuzTJ-ng6IBWMWuZZ0-46" target="sMZuzTJ-ng6IBWMWuZZ0-51" parent="1">
          <mxGeometry relative="1" as="geometry" />
        </mxCell>
        <mxCell id="sMZuzTJ-ng6IBWMWuZZ0-46" value="&lt;font style=&quot;font-size: 24px;&quot;&gt;G&lt;sub&gt;C&lt;/sub&gt;&lt;/font&gt;" style="rounded=0;whiteSpace=wrap;html=1;strokeWidth=5;fontFamily=Helvetica;fontSize=11;fontStyle=1;strokeColor=default;align=center;verticalAlign=middle;fontColor=default;labelBackgroundColor=default;" vertex="1" parent="1">
          <mxGeometry x="208" y="500" width="120" height="60" as="geometry" />
        </mxCell>
        <mxCell id="sMZuzTJ-ng6IBWMWuZZ0-47" style="edgeStyle=elbowEdgeStyle;rounded=0;orthogonalLoop=1;jettySize=auto;html=1;entryX=0;entryY=0.5;entryDx=0;entryDy=0;strokeColor=default;strokeWidth=5;align=center;verticalAlign=middle;fontFamily=Helvetica;fontSize=11;fontColor=default;labelBackgroundColor=default;endArrow=blockThin;endFill=1;" edge="1" source="sMZuzTJ-ng6IBWMWuZZ0-49" target="sMZuzTJ-ng6IBWMWuZZ0-46" parent="1">
          <mxGeometry relative="1" as="geometry" />
        </mxCell>
        <mxCell id="sMZuzTJ-ng6IBWMWuZZ0-48" style="edgeStyle=elbowEdgeStyle;rounded=0;orthogonalLoop=1;jettySize=auto;html=1;exitX=0;exitY=0.5;exitDx=0;exitDy=0;entryX=0;entryY=0.5;entryDx=0;entryDy=0;strokeColor=default;strokeWidth=5;align=center;verticalAlign=middle;fontFamily=Helvetica;fontSize=11;fontColor=default;labelBackgroundColor=default;endArrow=blockThin;endFill=1;" edge="1" target="sMZuzTJ-ng6IBWMWuZZ0-49" parent="1">
          <mxGeometry relative="1" as="geometry">
            <mxPoint x="38" y="530" as="sourcePoint" />
          </mxGeometry>
        </mxCell>
        <mxCell id="sMZuzTJ-ng6IBWMWuZZ0-49" value="" style="shape=sumEllipse;perimeter=ellipsePerimeter;whiteSpace=wrap;html=1;backgroundOutline=1;strokeWidth=5;rounded=0;strokeColor=default;align=center;verticalAlign=middle;fontFamily=Helvetica;fontSize=11;fontColor=default;labelBackgroundColor=default;" vertex="1" parent="1">
          <mxGeometry x="98" y="505" width="50" height="50" as="geometry" />
        </mxCell>
        <mxCell id="sMZuzTJ-ng6IBWMWuZZ0-50" style="edgeStyle=elbowEdgeStyle;rounded=0;orthogonalLoop=1;jettySize=auto;html=1;entryX=0;entryY=0.5;entryDx=0;entryDy=0;strokeColor=default;strokeWidth=5;align=center;verticalAlign=middle;fontFamily=Helvetica;fontSize=11;fontColor=default;labelBackgroundColor=default;endArrow=blockThin;endFill=1;" edge="1" source="sMZuzTJ-ng6IBWMWuZZ0-51" target="sMZuzTJ-ng6IBWMWuZZ0-53" parent="1">
          <mxGeometry relative="1" as="geometry" />
        </mxCell>
        <mxCell id="sMZuzTJ-ng6IBWMWuZZ0-51" value="&lt;font style=&quot;font-size: 24px;&quot;&gt;G&lt;sub style=&quot;&quot;&gt;P&lt;/sub&gt;&lt;/font&gt;" style="rounded=0;whiteSpace=wrap;html=1;strokeWidth=5;fontFamily=Helvetica;fontSize=11;fontStyle=1;strokeColor=default;align=center;verticalAlign=middle;fontColor=default;labelBackgroundColor=default;" vertex="1" parent="1">
          <mxGeometry x="432" y="500" width="120" height="60" as="geometry" />
        </mxCell>
        <mxCell id="sMZuzTJ-ng6IBWMWuZZ0-52" style="edgeStyle=elbowEdgeStyle;rounded=0;orthogonalLoop=1;jettySize=auto;html=1;exitX=1;exitY=0.5;exitDx=0;exitDy=0;endArrow=blockThin;endFill=1;strokeWidth=5;" edge="1" source="sMZuzTJ-ng6IBWMWuZZ0-53" parent="1">
          <mxGeometry relative="1" as="geometry">
            <mxPoint x="798" y="530" as="targetPoint" />
          </mxGeometry>
        </mxCell>
        <mxCell id="sMZuzTJ-ng6IBWMWuZZ0-53" value="" style="shape=sumEllipse;perimeter=ellipsePerimeter;whiteSpace=wrap;html=1;backgroundOutline=1;strokeWidth=5;rounded=0;strokeColor=default;align=center;verticalAlign=middle;fontFamily=Helvetica;fontSize=11;fontColor=default;labelBackgroundColor=default;" vertex="1" parent="1">
          <mxGeometry x="628" y="505" width="50" height="50" as="geometry" />
        </mxCell>
        <mxCell id="sMZuzTJ-ng6IBWMWuZZ0-56" value="+" style="text;html=1;align=center;verticalAlign=middle;resizable=0;points=[];autosize=1;strokeColor=none;fillColor=none;fontFamily=IBM Plex sans;fontSize=24;fontStyle=1" vertex="1" parent="1">
          <mxGeometry x="88" y="510" width="40" height="40" as="geometry" />
        </mxCell>
        <mxCell id="sMZuzTJ-ng6IBWMWuZZ0-57" value="+" style="text;html=1;align=center;verticalAlign=middle;resizable=0;points=[];autosize=1;strokeColor=none;fillColor=none;fontFamily=IBM Plex sans;fontSize=24;fontStyle=1" vertex="1" parent="1">
          <mxGeometry x="618" y="510" width="40" height="40" as="geometry" />
        </mxCell>
        <mxCell id="sMZuzTJ-ng6IBWMWuZZ0-58" style="edgeStyle=elbowEdgeStyle;rounded=0;orthogonalLoop=1;jettySize=auto;html=1;entryX=0.5;entryY=0;entryDx=0;entryDy=0;strokeColor=default;strokeWidth=5;align=center;verticalAlign=middle;fontFamily=Helvetica;fontSize=11;fontColor=default;labelBackgroundColor=default;endArrow=blockThin;endFill=1;" edge="1" target="sMZuzTJ-ng6IBWMWuZZ0-53" parent="1">
          <mxGeometry relative="1" as="geometry">
            <mxPoint x="648" y="450" as="targetPoint" />
            <mxPoint x="588" y="420" as="sourcePoint" />
            <Array as="points">
              <mxPoint x="653" y="470" />
            </Array>
          </mxGeometry>
        </mxCell>
        <mxCell id="sMZuzTJ-ng6IBWMWuZZ0-59" value="+" style="text;html=1;align=center;verticalAlign=middle;resizable=0;points=[];autosize=1;strokeColor=none;fillColor=none;fontFamily=IBM Plex sans;fontSize=24;fontStyle=1" vertex="1" parent="1">
          <mxGeometry x="633" y="495" width="40" height="40" as="geometry" />
        </mxCell>
        <mxCell id="sMZuzTJ-ng6IBWMWuZZ0-60" value="-" style="text;html=1;align=center;verticalAlign=middle;resizable=0;points=[];autosize=1;strokeColor=none;fillColor=none;fontFamily=IBM Plex sans;fontSize=24;fontStyle=1" vertex="1" parent="1">
          <mxGeometry x="108" y="522" width="30" height="40" as="geometry" />
        </mxCell>
        <mxCell id="sMZuzTJ-ng6IBWMWuZZ0-61" value="D" style="text;html=1;align=center;verticalAlign=middle;resizable=0;points=[];autosize=1;strokeColor=none;fillColor=none;fontFamily=IBM Plex sans;fontSize=24;fontStyle=1" vertex="1" parent="1">
          <mxGeometry x="548" y="390" width="40" height="40" as="geometry" />
        </mxCell>
        <mxCell id="sMZuzTJ-ng6IBWMWuZZ0-62" value="Y" style="text;html=1;align=center;verticalAlign=middle;resizable=0;points=[];autosize=1;strokeColor=none;fillColor=none;fontFamily=IBM Plex sans;fontSize=24;fontStyle=1" vertex="1" parent="1">
          <mxGeometry x="768" y="482" width="40" height="40" as="geometry" />
        </mxCell>
        <mxCell id="sMZuzTJ-ng6IBWMWuZZ0-63" value="Y&lt;sub&gt;SP&lt;/sub&gt;" style="text;html=1;align=center;verticalAlign=middle;resizable=0;points=[];autosize=1;strokeColor=none;fillColor=none;fontFamily=IBM Plex sans;fontSize=24;fontStyle=1" vertex="1" parent="1">
          <mxGeometry x="18" y="477" width="60" height="50" as="geometry" />
        </mxCell>
        <mxCell id="sMZuzTJ-ng6IBWMWuZZ0-64" value="E" style="text;html=1;align=center;verticalAlign=middle;resizable=0;points=[];autosize=1;strokeColor=none;fillColor=none;fontFamily=IBM Plex sans;fontSize=24;fontStyle=1" vertex="1" parent="1">
          <mxGeometry x="158" y="487" width="40" height="40" as="geometry" />
        </mxCell>
        <mxCell id="sMZuzTJ-ng6IBWMWuZZ0-65" value="P" style="text;html=1;align=center;verticalAlign=middle;resizable=0;points=[];autosize=1;strokeColor=none;fillColor=none;fontFamily=IBM Plex sans;fontSize=24;fontStyle=1" vertex="1" parent="1">
          <mxGeometry x="358" y="487" width="40" height="40" as="geometry" />
        </mxCell>
        <mxCell id="sMZuzTJ-ng6IBWMWuZZ0-76" style="edgeStyle=elbowEdgeStyle;shape=connector;rounded=0;orthogonalLoop=1;jettySize=auto;html=1;strokeColor=default;strokeWidth=5;align=center;verticalAlign=middle;fontFamily=Helvetica;fontSize=11;fontColor=default;labelBackgroundColor=default;endArrow=blockThin;endFill=1;" edge="1" parent="1" target="sMZuzTJ-ng6IBWMWuZZ0-67">
          <mxGeometry relative="1" as="geometry">
            <mxPoint x="359.04761904761904" y="530" as="sourcePoint" />
            <Array as="points">
              <mxPoint x="360" y="590" />
            </Array>
          </mxGeometry>
        </mxCell>
        <mxCell id="sMZuzTJ-ng6IBWMWuZZ0-67" value="&lt;font style=&quot;font-size: 24px;&quot;&gt;G&#39;&lt;sub style=&quot;&quot;&gt;P&lt;/sub&gt;&lt;/font&gt;" style="rounded=0;whiteSpace=wrap;html=1;strokeWidth=5;fontFamily=Helvetica;fontSize=11;fontStyle=1;strokeColor=default;align=center;verticalAlign=middle;fontColor=default;labelBackgroundColor=default;" vertex="1" parent="1">
          <mxGeometry x="432" y="610" width="120" height="60" as="geometry" />
        </mxCell>
        <mxCell id="sMZuzTJ-ng6IBWMWuZZ0-74" style="edgeStyle=elbowEdgeStyle;shape=connector;rounded=0;orthogonalLoop=1;jettySize=auto;html=1;strokeColor=default;strokeWidth=5;align=center;verticalAlign=middle;fontFamily=Helvetica;fontSize=11;fontColor=default;labelBackgroundColor=default;endArrow=blockThin;endFill=1;entryX=0.569;entryY=0.927;entryDx=0;entryDy=0;entryPerimeter=0;" edge="1" parent="1" source="sMZuzTJ-ng6IBWMWuZZ0-70" target="sMZuzTJ-ng6IBWMWuZZ0-60">
          <mxGeometry relative="1" as="geometry">
            <mxPoint x="743" y="720" as="targetPoint" />
            <Array as="points">
              <mxPoint x="430" y="770" />
            </Array>
          </mxGeometry>
        </mxCell>
        <mxCell id="sMZuzTJ-ng6IBWMWuZZ0-75" style="edgeStyle=elbowEdgeStyle;shape=connector;rounded=0;orthogonalLoop=1;jettySize=auto;html=1;strokeColor=default;strokeWidth=5;align=center;verticalAlign=middle;fontFamily=Helvetica;fontSize=11;fontColor=default;labelBackgroundColor=default;endArrow=blockThin;endFill=1;" edge="1" parent="1" target="sMZuzTJ-ng6IBWMWuZZ0-70">
          <mxGeometry relative="1" as="geometry">
            <mxPoint x="743" y="530" as="sourcePoint" />
          </mxGeometry>
        </mxCell>
        <mxCell id="sMZuzTJ-ng6IBWMWuZZ0-70" value="" style="shape=sumEllipse;perimeter=ellipsePerimeter;whiteSpace=wrap;html=1;backgroundOutline=1;strokeWidth=5;rounded=0;strokeColor=default;align=center;verticalAlign=middle;fontFamily=Helvetica;fontSize=11;fontColor=default;labelBackgroundColor=default;" vertex="1" parent="1">
          <mxGeometry x="718" y="613" width="50" height="50" as="geometry" />
        </mxCell>
        <mxCell id="sMZuzTJ-ng6IBWMWuZZ0-71" value="+" style="text;html=1;align=center;verticalAlign=middle;resizable=0;points=[];autosize=1;strokeColor=none;fillColor=none;fontFamily=IBM Plex sans;fontSize=24;fontStyle=1" vertex="1" parent="1">
          <mxGeometry x="723" y="603" width="40" height="40" as="geometry" />
        </mxCell>
        <mxCell id="sMZuzTJ-ng6IBWMWuZZ0-72" value="-" style="text;html=1;align=center;verticalAlign=middle;resizable=0;points=[];autosize=1;strokeColor=none;fillColor=none;fontFamily=IBM Plex sans;fontSize=24;fontStyle=1" vertex="1" parent="1">
          <mxGeometry x="713" y="617" width="30" height="40" as="geometry" />
        </mxCell>
        <mxCell id="sMZuzTJ-ng6IBWMWuZZ0-73" style="edgeStyle=elbowEdgeStyle;shape=connector;rounded=0;orthogonalLoop=1;jettySize=auto;html=1;entryX=0.55;entryY=0.55;entryDx=0;entryDy=0;entryPerimeter=0;strokeColor=default;strokeWidth=5;align=center;verticalAlign=middle;fontFamily=Helvetica;fontSize=11;fontColor=default;labelBackgroundColor=default;endArrow=blockThin;endFill=1;" edge="1" parent="1">
          <mxGeometry relative="1" as="geometry">
            <mxPoint x="550" y="640" as="sourcePoint" />
            <mxPoint x="717" y="640" as="targetPoint" />
          </mxGeometry>
        </mxCell>
        <mxCell id="sMZuzTJ-ng6IBWMWuZZ0-78" value="Process" style="text;html=1;align=center;verticalAlign=middle;resizable=0;points=[];autosize=1;strokeColor=none;fillColor=none;fontFamily=IBM Plex sans;fontSize=24;fontStyle=1" vertex="1" parent="1">
          <mxGeometry x="437" y="460" width="110" height="40" as="geometry" />
        </mxCell>
        <mxCell id="sMZuzTJ-ng6IBWMWuZZ0-79" value="Internal&amp;nbsp;&lt;span style=&quot;background-color: initial;&quot;&gt;model&lt;/span&gt;" style="text;html=1;align=center;verticalAlign=middle;resizable=0;points=[];autosize=1;strokeColor=none;fillColor=none;fontFamily=IBM Plex sans;fontSize=24;fontStyle=1" vertex="1" parent="1">
          <mxGeometry x="402" y="670" width="180" height="40" as="geometry" />
        </mxCell>
        <mxCell id="sMZuzTJ-ng6IBWMWuZZ0-80" value="Y&#39;" style="text;html=1;align=center;verticalAlign=middle;resizable=0;points=[];autosize=1;strokeColor=none;fillColor=none;fontFamily=IBM Plex sans;fontSize=24;fontStyle=1" vertex="1" parent="1">
          <mxGeometry x="620" y="600" width="40" height="40" as="geometry" />
        </mxCell>
        <mxCell id="sMZuzTJ-ng6IBWMWuZZ0-81" value="Y - Y&#39;" style="text;html=1;align=center;verticalAlign=middle;resizable=0;points=[];autosize=1;strokeColor=none;fillColor=none;fontFamily=IBM Plex sans;fontSize=24;fontStyle=1" vertex="1" parent="1">
          <mxGeometry x="382" y="730" width="80" height="40" as="geometry" />
        </mxCell>
        <mxCell id="sMZuzTJ-ng6IBWMWuZZ0-82" style="edgeStyle=elbowEdgeStyle;rounded=0;orthogonalLoop=1;jettySize=auto;html=1;entryX=0;entryY=0.5;entryDx=0;entryDy=0;strokeColor=default;strokeWidth=5;align=center;verticalAlign=middle;fontFamily=Helvetica;fontSize=11;fontColor=default;labelBackgroundColor=default;endArrow=blockThin;endFill=1;" edge="1" source="sMZuzTJ-ng6IBWMWuZZ0-83" target="sMZuzTJ-ng6IBWMWuZZ0-88" parent="1">
          <mxGeometry relative="1" as="geometry" />
        </mxCell>
        <mxCell id="sMZuzTJ-ng6IBWMWuZZ0-83" value="&lt;font style=&quot;font-size: 24px;&quot;&gt;G&lt;sub&gt;C&lt;/sub&gt;&lt;/font&gt;" style="rounded=0;whiteSpace=wrap;html=1;strokeWidth=5;fontFamily=Helvetica;fontSize=11;fontStyle=1;strokeColor=default;align=center;verticalAlign=middle;fontColor=default;labelBackgroundColor=default;" vertex="1" parent="1">
          <mxGeometry x="267" y="950" width="120" height="60" as="geometry" />
        </mxCell>
        <mxCell id="sMZuzTJ-ng6IBWMWuZZ0-85" style="edgeStyle=elbowEdgeStyle;rounded=0;orthogonalLoop=1;jettySize=auto;html=1;exitX=0;exitY=0.5;exitDx=0;exitDy=0;entryX=0;entryY=0.5;entryDx=0;entryDy=0;strokeColor=default;strokeWidth=5;align=center;verticalAlign=middle;fontFamily=Helvetica;fontSize=11;fontColor=default;labelBackgroundColor=default;endArrow=blockThin;endFill=1;" edge="1" target="sMZuzTJ-ng6IBWMWuZZ0-86" parent="1">
          <mxGeometry relative="1" as="geometry">
            <mxPoint x="30" y="980" as="sourcePoint" />
          </mxGeometry>
        </mxCell>
        <mxCell id="sMZuzTJ-ng6IBWMWuZZ0-119" style="edgeStyle=elbowEdgeStyle;shape=connector;rounded=0;orthogonalLoop=1;jettySize=auto;html=1;exitX=1;exitY=0.5;exitDx=0;exitDy=0;strokeColor=default;strokeWidth=5;align=center;verticalAlign=middle;fontFamily=Helvetica;fontSize=11;fontColor=default;labelBackgroundColor=default;endArrow=blockThin;endFill=1;entryX=0;entryY=0.5;entryDx=0;entryDy=0;" edge="1" parent="1" source="sMZuzTJ-ng6IBWMWuZZ0-86" target="sMZuzTJ-ng6IBWMWuZZ0-114">
          <mxGeometry relative="1" as="geometry" />
        </mxCell>
        <mxCell id="sMZuzTJ-ng6IBWMWuZZ0-86" value="" style="shape=sumEllipse;perimeter=ellipsePerimeter;whiteSpace=wrap;html=1;backgroundOutline=1;strokeWidth=5;rounded=0;strokeColor=default;align=center;verticalAlign=middle;fontFamily=Helvetica;fontSize=11;fontColor=default;labelBackgroundColor=default;" vertex="1" parent="1">
          <mxGeometry x="90" y="955" width="50" height="50" as="geometry" />
        </mxCell>
        <mxCell id="sMZuzTJ-ng6IBWMWuZZ0-87" style="edgeStyle=elbowEdgeStyle;rounded=0;orthogonalLoop=1;jettySize=auto;html=1;entryX=0;entryY=0.5;entryDx=0;entryDy=0;strokeColor=default;strokeWidth=5;align=center;verticalAlign=middle;fontFamily=Helvetica;fontSize=11;fontColor=default;labelBackgroundColor=default;endArrow=blockThin;endFill=1;" edge="1" source="sMZuzTJ-ng6IBWMWuZZ0-88" target="sMZuzTJ-ng6IBWMWuZZ0-90" parent="1">
          <mxGeometry relative="1" as="geometry" />
        </mxCell>
        <mxCell id="sMZuzTJ-ng6IBWMWuZZ0-88" value="&lt;font style=&quot;font-size: 24px;&quot;&gt;G&lt;sub style=&quot;&quot;&gt;P&lt;/sub&gt;&lt;/font&gt;" style="rounded=0;whiteSpace=wrap;html=1;strokeWidth=5;fontFamily=Helvetica;fontSize=11;fontStyle=1;strokeColor=default;align=center;verticalAlign=middle;fontColor=default;labelBackgroundColor=default;" vertex="1" parent="1">
          <mxGeometry x="463" y="950" width="120" height="60" as="geometry" />
        </mxCell>
        <mxCell id="sMZuzTJ-ng6IBWMWuZZ0-89" style="edgeStyle=elbowEdgeStyle;rounded=0;orthogonalLoop=1;jettySize=auto;html=1;exitX=1;exitY=0.5;exitDx=0;exitDy=0;endArrow=blockThin;endFill=1;strokeWidth=5;" edge="1" source="sMZuzTJ-ng6IBWMWuZZ0-90" parent="1">
          <mxGeometry relative="1" as="geometry">
            <mxPoint x="790" y="980" as="targetPoint" />
          </mxGeometry>
        </mxCell>
        <mxCell id="sMZuzTJ-ng6IBWMWuZZ0-90" value="" style="shape=sumEllipse;perimeter=ellipsePerimeter;whiteSpace=wrap;html=1;backgroundOutline=1;strokeWidth=5;rounded=0;strokeColor=default;align=center;verticalAlign=middle;fontFamily=Helvetica;fontSize=11;fontColor=default;labelBackgroundColor=default;" vertex="1" parent="1">
          <mxGeometry x="620" y="955" width="50" height="50" as="geometry" />
        </mxCell>
        <mxCell id="sMZuzTJ-ng6IBWMWuZZ0-91" value="+" style="text;html=1;align=center;verticalAlign=middle;resizable=0;points=[];autosize=1;strokeColor=none;fillColor=none;fontFamily=IBM Plex sans;fontSize=24;fontStyle=1" vertex="1" parent="1">
          <mxGeometry x="80" y="960" width="40" height="40" as="geometry" />
        </mxCell>
        <mxCell id="sMZuzTJ-ng6IBWMWuZZ0-92" value="+" style="text;html=1;align=center;verticalAlign=middle;resizable=0;points=[];autosize=1;strokeColor=none;fillColor=none;fontFamily=IBM Plex sans;fontSize=24;fontStyle=1" vertex="1" parent="1">
          <mxGeometry x="610" y="960" width="40" height="40" as="geometry" />
        </mxCell>
        <mxCell id="sMZuzTJ-ng6IBWMWuZZ0-93" style="edgeStyle=elbowEdgeStyle;rounded=0;orthogonalLoop=1;jettySize=auto;html=1;entryX=0.5;entryY=0;entryDx=0;entryDy=0;strokeColor=default;strokeWidth=5;align=center;verticalAlign=middle;fontFamily=Helvetica;fontSize=11;fontColor=default;labelBackgroundColor=default;endArrow=blockThin;endFill=1;" edge="1" target="sMZuzTJ-ng6IBWMWuZZ0-90" parent="1">
          <mxGeometry relative="1" as="geometry">
            <mxPoint x="640" y="900" as="targetPoint" />
            <mxPoint x="580" y="870" as="sourcePoint" />
            <Array as="points">
              <mxPoint x="645" y="920" />
            </Array>
          </mxGeometry>
        </mxCell>
        <mxCell id="sMZuzTJ-ng6IBWMWuZZ0-94" value="+" style="text;html=1;align=center;verticalAlign=middle;resizable=0;points=[];autosize=1;strokeColor=none;fillColor=none;fontFamily=IBM Plex sans;fontSize=24;fontStyle=1" vertex="1" parent="1">
          <mxGeometry x="625" y="945" width="40" height="40" as="geometry" />
        </mxCell>
        <mxCell id="sMZuzTJ-ng6IBWMWuZZ0-95" value="-" style="text;html=1;align=center;verticalAlign=middle;resizable=0;points=[];autosize=1;strokeColor=none;fillColor=none;fontFamily=IBM Plex sans;fontSize=24;fontStyle=1" vertex="1" parent="1">
          <mxGeometry x="100" y="972" width="30" height="40" as="geometry" />
        </mxCell>
        <mxCell id="sMZuzTJ-ng6IBWMWuZZ0-96" value="D" style="text;html=1;align=center;verticalAlign=middle;resizable=0;points=[];autosize=1;strokeColor=none;fillColor=none;fontFamily=IBM Plex sans;fontSize=24;fontStyle=1" vertex="1" parent="1">
          <mxGeometry x="540" y="840" width="40" height="40" as="geometry" />
        </mxCell>
        <mxCell id="sMZuzTJ-ng6IBWMWuZZ0-97" value="Y" style="text;html=1;align=center;verticalAlign=middle;resizable=0;points=[];autosize=1;strokeColor=none;fillColor=none;fontFamily=IBM Plex sans;fontSize=24;fontStyle=1" vertex="1" parent="1">
          <mxGeometry x="760" y="932" width="40" height="40" as="geometry" />
        </mxCell>
        <mxCell id="sMZuzTJ-ng6IBWMWuZZ0-98" value="Y&lt;sub&gt;SP&lt;/sub&gt;" style="text;html=1;align=center;verticalAlign=middle;resizable=0;points=[];autosize=1;strokeColor=none;fillColor=none;fontFamily=IBM Plex sans;fontSize=24;fontStyle=1" vertex="1" parent="1">
          <mxGeometry x="10" y="927" width="60" height="50" as="geometry" />
        </mxCell>
        <mxCell id="sMZuzTJ-ng6IBWMWuZZ0-99" value="E" style="text;html=1;align=center;verticalAlign=middle;resizable=0;points=[];autosize=1;strokeColor=none;fillColor=none;fontFamily=IBM Plex sans;fontSize=24;fontStyle=1" vertex="1" parent="1">
          <mxGeometry x="140" y="937" width="40" height="40" as="geometry" />
        </mxCell>
        <mxCell id="sMZuzTJ-ng6IBWMWuZZ0-100" value="P" style="text;html=1;align=center;verticalAlign=middle;resizable=0;points=[];autosize=1;strokeColor=none;fillColor=none;fontFamily=IBM Plex sans;fontSize=24;fontStyle=1" vertex="1" parent="1">
          <mxGeometry x="392" y="937" width="40" height="40" as="geometry" />
        </mxCell>
        <mxCell id="sMZuzTJ-ng6IBWMWuZZ0-118" style="edgeStyle=elbowEdgeStyle;shape=connector;rounded=0;orthogonalLoop=1;jettySize=auto;html=1;strokeColor=default;strokeWidth=5;align=center;verticalAlign=middle;fontFamily=Helvetica;fontSize=11;fontColor=default;labelBackgroundColor=default;endArrow=blockThin;endFill=1;entryX=0.5;entryY=1;entryDx=0;entryDy=0;exitX=-0.045;exitY=0.491;exitDx=0;exitDy=0;exitPerimeter=0;" edge="1" parent="1" source="sMZuzTJ-ng6IBWMWuZZ0-102" target="sMZuzTJ-ng6IBWMWuZZ0-114">
          <mxGeometry relative="1" as="geometry">
            <mxPoint x="200" y="1040" as="targetPoint" />
            <Array as="points">
              <mxPoint x="210" y="1050" />
            </Array>
          </mxGeometry>
        </mxCell>
        <mxCell id="sMZuzTJ-ng6IBWMWuZZ0-125" style="edgeStyle=elbowEdgeStyle;shape=connector;rounded=0;orthogonalLoop=1;jettySize=auto;html=1;exitX=0.5;exitY=0;exitDx=0;exitDy=0;strokeColor=default;strokeWidth=5;align=center;verticalAlign=middle;fontFamily=Helvetica;fontSize=11;fontColor=default;labelBackgroundColor=default;endArrow=blockThin;endFill=1;entryX=0.5;entryY=0;entryDx=0;entryDy=0;" edge="1" parent="1" target="sMZuzTJ-ng6IBWMWuZZ0-102">
          <mxGeometry relative="1" as="geometry">
            <mxPoint x="420" y="980" as="sourcePoint" />
            <Array as="points">
              <mxPoint x="420" y="1010" />
            </Array>
          </mxGeometry>
        </mxCell>
        <mxCell id="sMZuzTJ-ng6IBWMWuZZ0-102" value="&lt;span style=&quot;font-size: 24px;&quot;&gt;$$\tilde{G^*}$$&lt;/span&gt;" style="rounded=0;whiteSpace=wrap;html=1;strokeWidth=5;fontFamily=Helvetica;fontSize=11;fontStyle=1;strokeColor=default;align=center;verticalAlign=middle;fontColor=default;labelBackgroundColor=default;" vertex="1" parent="1">
          <mxGeometry x="387" y="1052" width="67" height="90" as="geometry" />
        </mxCell>
        <mxCell id="sMZuzTJ-ng6IBWMWuZZ0-103" style="edgeStyle=elbowEdgeStyle;shape=connector;rounded=0;orthogonalLoop=1;jettySize=auto;html=1;strokeColor=default;strokeWidth=5;align=center;verticalAlign=middle;fontFamily=Helvetica;fontSize=11;fontColor=default;labelBackgroundColor=default;endArrow=blockThin;endFill=1;entryX=0.569;entryY=0.927;entryDx=0;entryDy=0;entryPerimeter=0;" edge="1" source="sMZuzTJ-ng6IBWMWuZZ0-105" target="sMZuzTJ-ng6IBWMWuZZ0-95" parent="1">
          <mxGeometry relative="1" as="geometry">
            <mxPoint x="735" y="1170" as="targetPoint" />
            <Array as="points">
              <mxPoint x="422" y="1220" />
            </Array>
          </mxGeometry>
        </mxCell>
        <mxCell id="sMZuzTJ-ng6IBWMWuZZ0-104" style="edgeStyle=elbowEdgeStyle;shape=connector;rounded=0;orthogonalLoop=1;jettySize=auto;html=1;strokeColor=default;strokeWidth=5;align=center;verticalAlign=middle;fontFamily=Helvetica;fontSize=11;fontColor=default;labelBackgroundColor=default;endArrow=blockThin;endFill=1;" edge="1" target="sMZuzTJ-ng6IBWMWuZZ0-105" parent="1">
          <mxGeometry relative="1" as="geometry">
            <mxPoint x="735" y="980" as="sourcePoint" />
          </mxGeometry>
        </mxCell>
        <mxCell id="sMZuzTJ-ng6IBWMWuZZ0-105" value="" style="shape=sumEllipse;perimeter=ellipsePerimeter;whiteSpace=wrap;html=1;backgroundOutline=1;strokeWidth=5;rounded=0;strokeColor=default;align=center;verticalAlign=middle;fontFamily=Helvetica;fontSize=11;fontColor=default;labelBackgroundColor=default;" vertex="1" parent="1">
          <mxGeometry x="710" y="1071" width="50" height="50" as="geometry" />
        </mxCell>
        <mxCell id="sMZuzTJ-ng6IBWMWuZZ0-106" value="+" style="text;html=1;align=center;verticalAlign=middle;resizable=0;points=[];autosize=1;strokeColor=none;fillColor=none;fontFamily=IBM Plex sans;fontSize=24;fontStyle=1" vertex="1" parent="1">
          <mxGeometry x="715" y="1061" width="40" height="40" as="geometry" />
        </mxCell>
        <mxCell id="sMZuzTJ-ng6IBWMWuZZ0-107" value="-" style="text;html=1;align=center;verticalAlign=middle;resizable=0;points=[];autosize=1;strokeColor=none;fillColor=none;fontFamily=IBM Plex sans;fontSize=24;fontStyle=1" vertex="1" parent="1">
          <mxGeometry x="705" y="1075" width="30" height="40" as="geometry" />
        </mxCell>
        <mxCell id="sMZuzTJ-ng6IBWMWuZZ0-108" style="edgeStyle=elbowEdgeStyle;shape=connector;rounded=0;orthogonalLoop=1;jettySize=auto;html=1;entryX=0.55;entryY=0.55;entryDx=0;entryDy=0;entryPerimeter=0;strokeColor=default;strokeWidth=5;align=center;verticalAlign=middle;fontFamily=Helvetica;fontSize=11;fontColor=default;labelBackgroundColor=default;endArrow=blockThin;endFill=1;" edge="1" parent="1">
          <mxGeometry relative="1" as="geometry">
            <mxPoint x="581" y="1096.83" as="sourcePoint" />
            <mxPoint x="710" y="1096.83" as="targetPoint" />
          </mxGeometry>
        </mxCell>
        <mxCell id="sMZuzTJ-ng6IBWMWuZZ0-109" value="Process" style="text;html=1;align=center;verticalAlign=middle;resizable=0;points=[];autosize=1;strokeColor=none;fillColor=none;fontFamily=IBM Plex sans;fontSize=24;fontStyle=1" vertex="1" parent="1">
          <mxGeometry x="468" y="910" width="110" height="40" as="geometry" />
        </mxCell>
        <mxCell id="sMZuzTJ-ng6IBWMWuZZ0-110" value="Smith Predictor" style="text;html=1;align=center;verticalAlign=middle;resizable=0;points=[];autosize=1;strokeColor=none;fillColor=none;fontFamily=IBM Plex sans;fontSize=24;fontStyle=1" vertex="1" parent="1">
          <mxGeometry x="344" y="1140" width="190" height="40" as="geometry" />
        </mxCell>
        <mxCell id="sMZuzTJ-ng6IBWMWuZZ0-120" style="edgeStyle=elbowEdgeStyle;shape=connector;rounded=0;orthogonalLoop=1;jettySize=auto;html=1;entryX=0;entryY=0.5;entryDx=0;entryDy=0;strokeColor=default;strokeWidth=5;align=center;verticalAlign=middle;fontFamily=Helvetica;fontSize=11;fontColor=default;labelBackgroundColor=default;endArrow=blockThin;endFill=1;" edge="1" parent="1" source="sMZuzTJ-ng6IBWMWuZZ0-114" target="sMZuzTJ-ng6IBWMWuZZ0-83">
          <mxGeometry relative="1" as="geometry" />
        </mxCell>
        <mxCell id="sMZuzTJ-ng6IBWMWuZZ0-114" value="" style="shape=sumEllipse;perimeter=ellipsePerimeter;whiteSpace=wrap;html=1;backgroundOutline=1;strokeWidth=5;rounded=0;strokeColor=default;align=center;verticalAlign=middle;fontFamily=Helvetica;fontSize=11;fontColor=default;labelBackgroundColor=default;" vertex="1" parent="1">
          <mxGeometry x="185" y="955" width="50" height="50" as="geometry" />
        </mxCell>
        <mxCell id="sMZuzTJ-ng6IBWMWuZZ0-115" value="+" style="text;html=1;align=center;verticalAlign=middle;resizable=0;points=[];autosize=1;strokeColor=none;fillColor=none;fontFamily=IBM Plex sans;fontSize=24;fontStyle=1" vertex="1" parent="1">
          <mxGeometry x="175" y="960" width="40" height="40" as="geometry" />
        </mxCell>
        <mxCell id="sMZuzTJ-ng6IBWMWuZZ0-116" value="-" style="text;html=1;align=center;verticalAlign=middle;resizable=0;points=[];autosize=1;strokeColor=none;fillColor=none;fontFamily=IBM Plex sans;fontSize=24;fontStyle=1" vertex="1" parent="1">
          <mxGeometry x="195" y="972" width="30" height="40" as="geometry" />
        </mxCell>
        <mxCell id="sMZuzTJ-ng6IBWMWuZZ0-122" style="edgeStyle=elbowEdgeStyle;shape=connector;rounded=0;orthogonalLoop=1;jettySize=auto;html=1;strokeColor=default;strokeWidth=5;align=center;verticalAlign=middle;fontFamily=Helvetica;fontSize=11;fontColor=default;labelBackgroundColor=default;endArrow=blockThin;endFill=1;exitX=1;exitY=0.5;exitDx=0;exitDy=0;" edge="1" parent="1" source="sMZuzTJ-ng6IBWMWuZZ0-102">
          <mxGeometry relative="1" as="geometry">
            <mxPoint x="595" y="1097" as="targetPoint" />
            <mxPoint x="530" y="1097" as="sourcePoint" />
          </mxGeometry>
        </mxCell>
        <mxCell id="sMZuzTJ-ng6IBWMWuZZ0-121" value="&lt;font style=&quot;font-size: 24px;&quot;&gt;$$e^{-\tilde{\theta} s}$$&lt;/font&gt;" style="rounded=0;whiteSpace=wrap;html=1;strokeWidth=5;fontFamily=Helvetica;fontSize=11;fontStyle=1;strokeColor=default;align=center;verticalAlign=middle;fontColor=default;labelBackgroundColor=default;" vertex="1" parent="1">
          <mxGeometry x="503" y="1052" width="80" height="93" as="geometry" />
        </mxCell>
        <mxCell id="sMZuzTJ-ng6IBWMWuZZ0-124" value="Text" style="text;html=1;align=center;verticalAlign=middle;resizable=0;points=[];autosize=1;strokeColor=none;fillColor=none;fontFamily=Helvetica;fontSize=11;fontColor=default;labelBackgroundColor=default;" vertex="1" parent="1">
          <mxGeometry x="-590" y="378" width="40" height="30" as="geometry" />
        </mxCell>
      </root>
    </mxGraphModel>
  </diagram>
</mxfile>
